<svg width="24" height="24" viewBox="0 0 24 24" fill="none" xmlns="http://www.w3.org/2000/svg">
<g opacity="0.6">
<path fill-rule="evenodd" clip-rule="evenodd" d="M5 12.5C5 12.8978 5.15804 13.2794 5.43934 13.5607C5.72064 13.842 6.10218 14 6.5 14C6.89782 14 7.27936 13.842 7.56066 13.5607C7.84196 13.2794 8 12.8978 8 12.5C8 12.1022 7.84196 11.7206 7.56066 11.4393C7.27936 11.158 6.89782 11 6.5 11C6.10218 11 5.72064 11.158 5.43934 11.4393C5.15804 11.7206 5 12.1022 5 12.5ZM12.5 14C12.1022 14 11.7206 13.842 11.4393 13.5607C11.158 13.2794 11 12.8978 11 12.5C11 12.1022 11.158 11.7206 11.4393 11.4393C11.7206 11.158 12.1022 11 12.5 11C12.8978 11 13.2794 11.158 13.5607 11.4393C13.842 11.7206 14 12.1022 14 12.5C14 12.8978 13.842 13.2794 13.5607 13.5607C13.2794 13.842 12.8978 14 12.5 14ZM18.5 14C18.1022 14 17.7206 13.842 17.4393 13.5607C17.158 13.2794 17 12.8978 17 12.5C17 12.1022 17.158 11.7206 17.4393 11.4393C17.7206 11.158 18.1022 11 18.5 11C18.8978 11 19.2794 11.158 19.5607 11.4393C19.842 11.7206 20 12.1022 20 12.5C20 12.8978 19.842 13.2794 19.5607 13.5607C19.2794 13.842 18.8978 14 18.5 14Z" fill="white"/>
</g>
</svg>
